<svg width="76" height="37" viewBox="0 0 76 37" fill="none" xmlns="http://www.w3.org/2000/svg">
<path d="M72.96 17.4756C73.6942 17.1875 74.4372 17.2191 75.1904 17.4062C75.8027 17.5598 75.9818 18.0438 75.5947 18.4834C75.5043 18.5885 75.4751 18.7443 75.3994 18.8662C75.1091 19.3393 74.8562 19.8166 74.3242 20.1152C73.9076 20.3466 73.5829 20.7446 73.2168 21.0664C73.242 21.1378 73.2443 21.1422 73.2695 21.2158C73.5429 21.2284 73.8205 21.22 74.0918 21.2578C74.4262 21.3041 74.7717 21.346 75.083 21.4658C75.8068 21.7476 75.9502 22.3744 75.9355 23.0137C75.6683 23.306 75.4309 23.5736 75.1826 23.8281C75.0816 23.9312 74.9653 24.0696 74.8369 24.0928C73.9513 24.2548 73.591 25.0054 73.166 25.7246C73.1605 25.7263 73.0667 25.7553 73.042 25.7939C72.96 25.6637 72.8845 25.5396 72.792 25.3926C72.5605 25.4157 72.5183 25.8785 72.167 25.6914C72.1081 25.6599 71.9227 25.8133 71.8301 25.9121C71.5166 26.2549 71.2008 26.5957 70.9209 26.9658C70.7168 27.235 70.5404 27.3842 70.1953 27.1865C70.0334 27.0941 69.8084 27.0289 69.6338 27.0645C69.3918 27.1128 68.9961 27.2377 68.9688 27.3828C68.8803 27.8873 68.4989 27.9732 68.1455 28.1162C66.9945 28.5831 65.8289 29.0166 64.6885 29.5088C64.1835 29.7275 63.7121 30.0323 63.2471 30.333C62.7379 30.6632 62.4055 31.1177 62.2939 31.7422C62.2561 31.9567 62.0704 32.1649 61.9062 32.3311C61.8241 32.4152 61.5464 32.4613 61.5127 32.415C61.2034 31.9807 60.7175 32.6019 60.1475 31.7441C59.91 31.3844 60.0718 30.7051 60.0508 30.251C60.034 29.8831 60.0212 29.6013 59.7646 29.2607C59.2365 28.5561 58.8678 27.7333 58.3965 26.9824C58.2804 26.7998 57.8269 26.7972 57.7891 26.5723C57.7681 26.4483 57.7527 26.3013 57.6309 26.1689C57.8539 25.5338 57.4919 25.1656 56.8438 24.8711C56.5492 24.7364 56.3679 24.3553 56.0986 24.042C54.7877 25.0116 53.5359 26.0239 52.9277 27.6729C53.4643 27.8453 53.9824 27.6222 54.4854 27.3467C54.8281 27.1596 55.1584 26.9516 55.4844 26.7393C55.8147 26.5247 56.0443 26.541 56.3789 26.8291C56.8334 27.2203 56.9849 27.711 57.1006 28.2305C57.1614 28.51 57.0769 28.7457 56.7383 28.9307C56.2376 29.2061 55.7579 29.4076 55.1836 29.3066C55.0174 29.2772 54.8301 29.2839 54.6934 29.2041C54.079 28.8466 53.4037 29.0184 52.7578 28.9512C52.6063 28.9343 52.3912 29.0106 52.2881 29.1221C51.6169 29.8349 50.6852 30.302 50.2686 31.2588C50.1823 31.4565 50.0468 31.6499 49.8848 31.793C49.4158 32.2115 49.4049 32.7166 49.5459 33.2676C49.6742 33.7763 49.6222 33.8335 49.0713 33.9512C48.9303 33.9827 48.7993 34.1089 48.6836 34.2119C48.3386 34.5169 48.0313 34.9076 47.4863 34.5459C47.3979 34.4871 47.2169 34.5672 47.0781 34.584C46.6573 34.6387 46.5813 34.573 46.5645 34.125C46.5477 33.6793 46.5814 33.292 47 32.9619C47.2734 32.7453 47.4128 32.3316 47.5537 31.9805C47.6758 31.6755 47.7834 31.3938 48.1348 31.2949C48.5702 31.1729 48.8012 30.8461 49.0137 30.3877C47.2883 30.7053 45.7099 31.2359 44.2412 32.0771C43.0125 32.7816 41.7501 33.4315 40.5635 34.2012C40.0858 34.5125 39.7718 35.0757 39.3867 35.5195C39.0543 35.6267 38.6464 35.6864 38.3203 35.8799C37.6471 36.2773 37.4345 36.4032 37.2178 36.1426C36.9821 35.8587 36.6454 35.673 36.2793 35.6162C36.0205 35.5763 36.0413 35.3664 36.0918 34.7314C36.1086 34.5253 36.0159 34.3103 35.957 34.0264C36.9523 33.5005 37.2747 32.4974 37.6514 31.5215C37.8597 30.9831 38.0785 30.4427 38.3457 29.9316C38.6087 29.4291 38.6987 28.9497 38.4316 28.5312C39.0166 27.9129 39.5891 27.3567 40.1025 26.751C40.441 26.3515 40.3149 26.0785 39.8291 25.7842C39.7954 25.7631 39.8372 25.6699 39.751 25.6426C39.9508 25.4576 40.2916 25.3255 40.0605 24.9619C39.9154 24.7348 40.0204 24.5661 40.2266 24.4062C40.3549 24.3053 40.4815 24.1244 40.4941 23.9688C40.5404 23.3589 40.528 23.3901 41.1445 23.3291C41.5968 23.2828 42.0468 23.1587 42.4844 23.0283C43.1009 22.8453 43.3474 23.0184 43.3096 23.6494C43.3032 23.767 43.2779 23.9054 43.3281 24C43.5407 24.4059 43.4689 24.7703 43.208 25.1152C42.6925 25.7945 42.1749 26.4744 41.6553 27.1494C41.4282 27.4437 41.2541 27.7004 41.4287 28.1377C41.5064 28.3311 41.4614 28.5707 41.4131 28.8271C41.371 29.0522 41.3482 29.0422 41.123 29.0801H41.1191C41.0835 29.0864 41.0455 29.0922 41.0098 29.1006C40.8519 29.1321 40.721 29.3133 40.6221 29.6309C40.6134 29.6587 40.5197 29.8817 40.5273 29.9082C40.5337 29.9292 40.5404 29.9506 40.5488 29.9717C40.6119 30.1334 40.7018 30.0518 40.6113 30.1338L40.4307 30.209C40.2077 30.2995 40.25 30.5875 40.4688 30.6885L40.4941 30.7012C40.6245 30.7622 40.6854 30.9494 40.5742 31.042C39.9135 31.5909 39.8018 31.8435 39.7598 32.0664C40.1953 32.5164 40.6227 32.3777 41.0771 32.1338C41.7862 31.7532 42.5684 31.4769 43.208 31.0059C43.8098 30.5642 44.5992 30.4296 45.0811 29.7881C45.2053 29.6221 45.5591 29.5698 45.8115 29.5635C46.9582 29.5382 47.9849 29.1365 48.9863 28.6318C49.1252 28.5625 49.3168 28.6126 49.4746 28.5664C49.8616 28.455 50.3162 28.4132 50.6045 28.1758C51.1074 27.7636 51.5389 27.2478 51.7725 26.6064C51.8629 26.3562 52.0191 26.127 52.1201 25.8789C52.2359 25.5781 52.3321 25.2663 52.4941 24.8057C52.6351 24.7342 52.7869 24.4318 53.0078 24.3203C53.174 23.8218 54.0637 23.4385 53.5166 23.041C53.4477 22.9908 53.4733 22.9689 53.5762 22.6436C53.652 22.408 53.8836 22.0673 53.9678 22.2334C54.0141 22.3217 54.2223 22.1727 54.2686 22.0928C54.6452 21.6743 55.3122 21.7309 55.6699 21.2324C55.8971 21.1337 56.2124 21.1211 56.4521 21.1904C56.9887 21.344 57.4062 21.2726 57.7471 20.8057C57.8417 20.6754 58.0095 20.5973 58.1504 20.4922C58.4133 20.5994 58.6575 20.6981 58.9688 20.8242C58.7984 21.1312 58.6427 21.4109 58.4639 21.7305C58.6825 21.825 58.853 21.8994 59.0107 21.9688C59.1874 22.4481 58.8347 22.6288 58.4961 22.8369C58.5487 23.0914 58.5373 23.3633 58.6572 23.5547C59.3201 24.6337 59.5818 25.9142 60.415 26.9111C60.7159 27.2708 60.8739 27.7502 61.1621 28.2949C61.2862 27.3086 61.3953 26.4316 61.5068 25.542C61.0166 25.5189 60.6396 25.4998 60.0967 25.4746C60.2524 25.3379 60.3008 25.4304 60.4922 25.0625C60.5427 24.9637 60.6778 24.9932 60.7578 24.8379C61.1471 24.6255 61.7996 24.8016 61.8564 24.0928C61.8922 23.6387 62.1023 23.5502 62.0352 23.1152C61.9468 22.8818 62.151 22.5408 62.2646 22.1201C62.1131 21.9876 62.4767 21.7268 62.3799 21.5459C62.4956 21.0096 62.6562 20.6915 62.29 20.1152C62.0608 19.7535 62.2559 19.4278 62.3232 19.085C62.4137 18.6372 62.7544 18.5467 63.1035 18.5508C63.1645 18.311 63.0616 17.9639 63.1289 17.7031C63.1289 17.7031 63.3292 17.6632 63.3545 17.5664C63.6826 17.8502 63.9581 18.0207 64.2441 18.2666C64.5303 18.5022 64.7786 18.1829 64.9238 18.6855C64.6231 19.0094 64.4931 19.3776 64.6025 19.8906C64.6761 20.2313 64.4257 20.6331 64.3457 21.0137C64.1837 21.7687 64.0384 22.5258 63.8701 23.3691C64.5686 23.2135 65.2717 23.0748 65.9639 22.9023C67.0832 22.6226 68.0996 22.1057 69.1074 21.5547C69.5451 21.3149 70.0779 21.2727 70.4756 20.9004C70.7428 20.6502 71.123 20.4916 70.9736 20.0332C70.8597 19.6844 70.2457 19.5542 69.7598 19.6025C68.6825 19.714 67.6935 20.0903 66.6982 20.4668C66.6204 20.4962 66.858 20.2843 65.8252 20.667L65.8164 20.5576C65.93 20.5029 66.3911 20.3509 66.3574 20.2373C66.6498 20.0503 66.9381 19.9265 67.2451 19.7646C67.5902 19.5838 67.9545 19.4379 68.3164 19.2949C69.8629 18.685 71.4114 18.0792 72.96 17.4756ZM71.3564 22.6904C70.3908 22.5727 69.4716 22.6967 68.6006 23.1572C68.4154 23.254 68.1919 23.3105 67.9814 23.3252C67.2366 23.382 66.5484 23.5841 65.9277 24.0068C65.73 24.1415 65.549 24.4398 65.2588 24.1416C64.7938 24.3856 64.2903 24.5812 63.8779 24.8945C63.5878 25.1154 63.4213 25.4956 63.1689 25.8467C63.6192 26.9634 62.9142 27.9943 62.832 29.1426C62.8468 29.1447 62.9485 29.1952 63.0264 29.1699C63.767 28.9302 64.5102 28.6953 65.2402 28.4219C65.7367 28.2347 66.2016 27.9561 66.7002 27.7773C67.3839 27.5334 68.0128 27.2688 68.0234 26.4697C68.419 26.3162 68.7183 26.2441 68.9688 26.0947C69.5535 25.7436 70.0898 25.3083 70.6914 24.9971C71.3058 24.6774 71.616 24.1303 71.9043 23.5771C72.1585 23.0895 71.9139 22.7598 71.3564 22.6904ZM54.25 0.00683594C54.3972 0.00686307 54.5154 0.124197 54.5176 0.273438V6.1377C54.5175 6.28482 54.3972 6.40427 54.25 6.4043H49.9092C49.0444 6.4043 48.2296 6.781 47.6699 7.44141L37.751 19.9053C35.592 22.5028 32.4501 23.9941 29.1338 23.9941H21.3086C17.9965 23.9941 14.8562 22.5028 12.6973 19.9053L10.5635 17.3398C10.4688 17.2284 10.484 17.0595 10.5977 16.9648L15.1094 13.2168C15.2209 13.1225 15.3888 13.1375 15.4834 13.251L17.6172 15.8164C18.5577 16.9479 19.9023 17.5956 21.3057 17.5957H29.1318C30.51 17.5957 31.8818 16.9398 32.8076 15.8398L42.7295 3.37402C44.5097 1.235 47.1253 0.00683594 49.9092 0.00683594H54.25ZM31.1621 0.0126953C31.3135 0.0127865 31.4355 0.134754 31.4355 0.286133V6.13477C31.4355 6.28614 31.3135 6.40811 31.1621 6.4082H20.2744C12.613 6.40832 6.40139 12.6175 6.40137 20.2754V23.7041C6.40118 23.8553 6.27928 23.9775 6.12793 23.9775H0.276367C0.12498 23.9775 0.00214309 23.8554 0.00195312 23.7041V20.2754C0.00197178 9.084 9.07789 0.0128114 20.2744 0.0126953H31.1621ZM7.38574 0C7.53304 0 7.65332 0.120349 7.65332 0.267578V1.00488C7.65332 1.09953 7.60242 1.18405 7.52246 1.23242C5.36774 2.50279 3.49264 4.21698 2.01758 6.25293C1.96923 6.3222 1.88969 6.36221 1.80566 6.3623H0.267578C0.120378 6.3623 0.000156382 6.24475 0 6.09766V0.267578C0 0.120349 0.120282 0 0.267578 0H7.38574Z" fill="#FAFAFA" style="mix-blend-mode:difference"/>
</svg>
