<svg width="26" height="15" viewBox="0 0 26 15" fill="none" xmlns="http://www.w3.org/2000/svg">
<path d="M1 6.36377C0.447715 6.36377 0 6.81148 0 7.36377C0 7.91605 0.447715 8.36377 1 8.36377V7.36377V6.36377ZM25.7071 8.07088C26.0976 7.68035 26.0976 7.04719 25.7071 6.65666L19.3431 0.292702C18.9526 -0.0978227 18.3195 -0.0978227 17.9289 0.292702C17.5384 0.683226 17.5384 1.31639 17.9289 1.70692L23.5858 7.36377L17.9289 13.0206C17.5384 13.4111 17.5384 14.0443 17.9289 14.4348C18.3195 14.8254 18.9526 14.8254 19.3431 14.4348L25.7071 8.07088ZM1 7.36377V8.36377H25V7.36377V6.36377H1V7.36377Z" fill="#FAFAFA"/>
</svg>
